<?xml version="1.0" encoding="UTF-8"?>
<svg viewBox="0 0 960 600" xmlns="http://www.w3.org/2000/svg" role="img" aria-labelledby="jevx-overview-title jevx-overview-desc">
      <title id="jevx-overview-title">jevxのSkill選択とデータ境界</title>
      <desc id="jevx-overview-desc">利用者の依頼をローカルでSkill候補へ絞り、候補がある通常の提案ではredacted prompt・raw cwd・候補metadataをJevへ送り、結果と安全なTelemetryを返す流れ。明示Skill・候補なし・dry-runでは外部判定を省略し、会話全文やTool結果は送信しない。</desc>
      <defs>
        <style>@import url('https://fonts.googleapis.com/css2?family=Instrument+Serif:ital@0;1&amp;family=Geist:wght@400;500;600&amp;family=Geist+Mono:wght@400;500;600&amp;display=swap');
          .zone-label { fill: #4f5d75; font: 500 8px 'Geist Mono', ui-monospace, monospace; letter-spacing: .16em; }
          .node-title { fill: #2d3142; font: 600 13px 'Geist', 'Hiragino Sans', 'Yu Gothic', sans-serif; text-anchor: middle; }
          .node-sub { fill: #4f5d75; font: 400 9px 'Geist', 'Hiragino Sans', 'Yu Gothic', sans-serif; text-anchor: middle; }
          .node-tech { fill: #7a8399; font: 400 8px 'Geist Mono', ui-monospace, monospace; text-anchor: middle; }
          .tag { fill: #7a8399; font: 500 8px 'Geist Mono', ui-monospace, monospace; letter-spacing: .12em; }
          .legend { fill: #4f5d75; font: 400 10px 'Geist', 'Hiragino Sans', 'Yu Gothic', sans-serif; }
          .legend-key { fill: #4f5d75; font: 500 8px 'Geist Mono', ui-monospace, monospace; letter-spacing: .16em; }
          .arrow-label { fill: #4f5d75; font: 400 8px 'Geist Mono', ui-monospace, monospace; letter-spacing: .05em; text-anchor: middle; }
        </style>
        <marker id="jevx-overview-arrow" markerWidth="8" markerHeight="6" refX="7" refY="3" orient="auto"><path d="M0 0 L8 3 L0 6 Z" fill="#4f5d75"/></marker>
        <marker id="jevx-overview-link" markerWidth="8" markerHeight="6" refX="7" refY="3" orient="auto"><path d="M0 0 L8 3 L0 6 Z" fill="#2e5aa8"/></marker>
        <marker id="jevx-overview-accent" markerWidth="8" markerHeight="6" refX="7" refY="3" orient="auto"><path d="M0 0 L8 3 L0 6 Z" fill="#eb6c36"/></marker>
      </defs>

      <rect width="960" height="600" fill="#f5f5f5"/>

      <!-- Trust zones are drawn before arrows and nodes. -->
      <rect x="40" y="100" width="600" height="340" rx="8" fill="#f5f5f5" stroke="#2d3142" stroke-opacity="0.22" stroke-width="1"/>
      <rect x="672" y="100" width="248" height="200" rx="8" fill="#2d3142" fill-opacity="0.03" stroke="#2d3142" stroke-opacity="0.26" stroke-width="1" stroke-dasharray="4,3"/>
      <rect x="56" y="104" width="112" height="14" rx="2" fill="#f5f5f5"/>
      <text x="64" y="114" class="zone-label">LOCAL · USER CONTROLLED</text>
      <rect x="688" y="104" width="172" height="14" rx="2" fill="#f5f5f5"/>
      <text x="696" y="114" class="zone-label">EXTERNAL · JEV GATEWAY</text>

      <!-- Connectors are drawn before all node boxes. -->
      <path d="M224 266 H248 Q256 266 256 258 V184 H272" fill="none" stroke="#4f5d75" stroke-width="1.2" marker-end="url(#jevx-overview-arrow)"/>
      <path d="M360 220 V300" fill="none" stroke="#4f5d75" stroke-width="1.2" marker-end="url(#jevx-overview-arrow)"/>
      <path d="M448 336 H464 Q472 336 472 328 V266 H480" fill="none" stroke="#7a8399" stroke-width="1" stroke-dasharray="5,4" marker-end="url(#jevx-overview-arrow)"/>
      <path d="M448 336 H640 Q648 336 648 328 V184 H704" fill="none" stroke="#2e5aa8" stroke-width="1.2" marker-end="url(#jevx-overview-link)"/>
      <path d="M704 184 H664 Q656 184 656 192 V266 H640" fill="none" stroke="#2e5aa8" stroke-width="1" stroke-dasharray="5,4" marker-end="url(#jevx-overview-link)"/>
      <path d="M560 318 V348" fill="none" stroke="#4f5d75" stroke-width="1.2" marker-end="url(#jevx-overview-arrow)"/>
      <path d="M224 384 H248" fill="none" stroke="#7a8399" stroke-width="1" stroke-dasharray="5,4"/>

      <!-- Arrow labels have opaque masks and visible gaps from the strokes. -->
      <rect x="492" y="316" width="148" height="14" rx="2" fill="#f5f5f5"/>
      <text x="566" y="326" class="arrow-label">JEV CALL · REQUIRED</text>
      <circle cx="256" cy="384" r="8" fill="#f5f5f5" stroke="#7a8399" stroke-width="1"/>
      <path d="M252 380 L260 388 M260 380 L252 388" stroke="#7a8399" stroke-width="1.2"/>

      <!-- User input -->
      <rect x="72" y="230" width="152" height="72" rx="6" fill="#f5f5f5" stroke="#7a8399" stroke-width="1"/>
      <rect x="80" y="238" width="30" height="12" rx="2" fill="none" stroke="#7a8399" stroke-opacity="0.50" stroke-width="0.8"/>
      <text x="95" y="247" class="tag">INPUT</text>
      <text x="148" y="270" class="node-title">利用者の依頼</text>
      <text x="148" y="285" class="node-sub">Skillを探したい</text>

      <!-- Local skill catalog -->
      <rect x="272" y="148" width="176" height="72" rx="6" fill="#ffffff" stroke="#2d3142" stroke-opacity="0.30" stroke-width="1"/>
      <rect x="280" y="156" width="42" height="12" rx="2" fill="none" stroke="#2d3142" stroke-opacity="0.35" stroke-width="0.8"/>
      <text x="301" y="165" class="tag">LOCAL</text>
      <text x="360" y="180" class="node-title">Skillカタログ</text>
      <text x="360" y="195" class="node-sub">project / userを探索</text>

      <!-- Local ranker -->
      <rect x="272" y="300" width="176" height="72" rx="6" fill="#eb6c36" fill-opacity="0.08" stroke="#eb6c36" stroke-width="1.2"/>
      <rect x="280" y="308" width="42" height="12" rx="2" fill="#eb6c36" fill-opacity="0.14" stroke="#eb6c36" stroke-opacity="0.55" stroke-width="0.8"/>
      <text x="301" y="317" fill="#eb6c36" class="tag">RANK</text>
      <text x="360" y="332" class="node-title">候補を絞る</text>
      <text x="360" y="347" class="node-sub">name / descriptionを採点</text>

      <!-- Decision output -->
      <rect x="480" y="230" width="160" height="88" rx="6" fill="#ffffff" stroke="#2d3142" stroke-opacity="0.30" stroke-width="1"/>
      <rect x="488" y="238" width="46" height="12" rx="2" fill="none" stroke="#2d3142" stroke-opacity="0.35" stroke-width="0.8"/>
      <text x="511" y="247" class="tag">RESULT</text>
      <text x="560" y="270" class="node-title">提案結果</text>
      <text x="560" y="285" class="node-sub">selected / none</text>
      <text x="560" y="301" class="node-tech">skip: explicit / no candidates</text>
      <text x="560" y="313" class="node-tech">or eval dry-run</text>

      <!-- Safe telemetry store -->
      <rect x="480" y="348" width="160" height="72" rx="6" fill="#2d3142" fill-opacity="0.05" stroke="#4f5d75" stroke-width="1"/>
      <rect x="488" y="356" width="44" height="12" rx="2" fill="none" stroke="#4f5d75" stroke-opacity="0.45" stroke-width="0.8"/>
      <text x="510" y="365" class="tag">STORE</text>
      <text x="560" y="388" class="node-title">Telemetry</text>
      <text x="560" y="403" class="node-sub">hash / 件数 / 遅延</text>

      <!-- External gateway for standard suggestions -->
      <rect x="704" y="148" width="152" height="88" rx="6" fill="#2e5aa8" fill-opacity="0.05" stroke="#2e5aa8" stroke-width="1"/>
      <rect x="712" y="156" width="36" height="12" rx="2" fill="none" stroke="#2e5aa8" stroke-opacity="0.45" stroke-width="0.8"/>
      <text x="730" y="165" fill="#2e5aa8" class="tag">JEV</text>
      <text x="780" y="178" class="node-title">Jev判定</text>
      <text x="780" y="192" class="node-sub">redacted prompt + raw cwd</text>
      <text x="780" y="206" class="node-tech">candidate metadata + none</text>

      <!-- Explicitly blocked raw content -->
      <rect x="72" y="348" width="152" height="72" rx="6" fill="#2d3142" fill-opacity="0.02" stroke="#7a8399" stroke-width="1" stroke-dasharray="4,3"/>
      <rect x="80" y="356" width="36" height="12" rx="2" fill="none" stroke="#7a8399" stroke-opacity="0.50" stroke-width="0.8"/>
      <text x="98" y="365" class="tag">BLOCK</text>
      <text x="148" y="388" class="node-title">会話全文</text>
      <text x="148" y="403" class="node-sub">Tool結果も対象外</text>

      <!-- Bottom legend -->
      <line x1="56" y1="500" x2="904" y2="500" stroke="#2d3142" stroke-opacity="0.12" stroke-width="0.8"/>
      <text x="56" y="518" class="legend-key">LEGEND</text>
      <rect x="56" y="536" width="14" height="10" rx="2" fill="#ffffff" stroke="#2d3142" stroke-opacity="0.30"/>
      <text x="78" y="545" class="legend">ローカルで確認・判断</text>
      <line x1="256" y1="541" x2="286" y2="541" stroke="#2e5aa8" stroke-width="1.1" marker-end="url(#jevx-overview-link)"/>
      <text x="296" y="545" class="legend">通常提案ではJev必須</text>
      <line x1="470" y1="541" x2="500" y2="541" stroke="#7a8399" stroke-width="1" stroke-dasharray="5,4"/>
      <circle cx="510" cy="541" r="6" fill="#f5f5f5" stroke="#7a8399" stroke-width="1"/>
      <path d="M507 538 L513 544 M513 538 L507 544" stroke="#7a8399" stroke-width="1"/>
      <text x="524" y="545" class="legend">送信しない境界</text>
    </svg>
